<svg version="1.2" xmlns="http://www.w3.org/2000/svg" viewBox="0 0 256 256" width="256" height="256"><style>.a{fill:#f00}.b{fill:#076c07}</style><path fill-rule="evenodd" d="m214.9 141.7v48.8c0 13.5-4.6 26.6-13 37.1v12.3c0 7.8-6.4 14.1-14.2 14.1h-65.6c-7.8 0-14.1-6.3-14.1-14.1v-12.9l-26.3-32.5c-5.3-6.6-7.6-14.8-6.6-23.1 1-8.4 5.2-15.8 11.9-20.9l8.5-6.4v-67.9c0-10.2 8.3-18.5 18.5-18.5h1.2c10.2 0 18.5 8.3 18.5 18.5v26.5c2.3-1 4.7-1.5 7.3-1.5h1.3c7.6 0 14.2 4.7 17 11.3 2.6-1.4 5.6-2.2 8.8-2.2h1.2c8.9 0 16.3 6.3 18.1 14.6 2.4-1.1 5-1.7 7.7-1.7h1.3c10.2 0 18.5 8.3 18.5 18.5zm-11.2 0c0-4-3.3-7.3-7.3-7.3h-1.3c-4 0-7.3 3.3-7.3 7.3q0 0.3 0 0.6v13.5c0 3.1-2.5 5.6-5.6 5.7q0 0 0 0c-3.1 0-5.6-2.5-5.6-5.6v-15.1q0-0.2 0-0.5v-11.5c0-4-3.3-7.3-7.3-7.3h-1.2c-4.1 0-7.3 3.3-7.3 7.3v27c0 3.1-2.5 5.7-5.6 5.7q0 0 0 0c-3.1 0-5.6-2.5-5.6-5.6v-27.1-9.1c0-4-3.3-7.3-7.3-7.3h-1.3c-4 0-7.3 3.2-7.3 7.3v36.1c0 3.1-2.5 5.7-5.6 5.7-3.1 0-5.6-2.5-5.6-5.6v-36.2q0 0 0 0c0 0 0-43.5 0-43.5 0-4-3.3-7.3-7.3-7.3h-1.2c-4.1 0-7.3 3.3-7.3 7.3 0 0 0 97.3 0 97.4 0 3.1-2.6 5.6-5.6 5.6-3.1 0-5.6-2.5-5.6-5.6v-15.4l-1.7 1.2c-4.3 3.3-7 8-7.6 13.3-0.7 5.3 0.8 10.6 4.2 14.7l27.5 34c0.8 1 1.3 2.3 1.3 3.6v14.9c0 1.6 1.3 2.9 2.9 2.9h65.6c1.7 0 3-1.3 3-2.9v-14.3c0-1.3 0.5-2.6 1.3-3.6 7.5-8.8 11.7-20 11.7-31.5 0 0 0-48.8 0-48.8z"/><path class="a" d="m181.2 73.4h-34.2c-3.1 0-5.6-2.5-5.6-5.6 0-3.1 2.5-5.6 5.6-5.6h34.2c3.1 0 5.6 2.5 5.6 5.6 0 3.1-2.5 5.6-5.6 5.6z"/><path class="a" d="m114 47.3c-3.1 0-5.6-2.5-5.6-5.6v-34.1c0-3.1 2.5-5.6 5.6-5.6 3 0 5.6 2.5 5.6 5.6v34.1c0 3.1-2.6 5.6-5.6 5.6z"/><path class="b" d="m138 53.6c-1.5 0-2.9-0.5-4-1.6-2.2-2.2-2.2-5.8 0-7.9l24.2-24.2c2.2-2.2 5.7-2.2 7.9 0 2.2 2.2 2.2 5.7 0 7.9l-24.2 24.2c-1.1 1.1-2.5 1.6-3.9 1.6z"/><path class="a" d="m80.9 73.4h-34.2c-3.1 0-5.6-2.5-5.6-5.6 0-3.1 2.5-5.6 5.6-5.6h34.2c3.1 0 5.6 2.5 5.6 5.6 0 3.1-2.5 5.6-5.6 5.6z"/><path class="b" d="m89.9 53.6c-1.4 0-2.8-0.5-3.9-1.6l-24.2-24.2c-2.2-2.2-2.2-5.7 0-7.9 2.2-2.2 5.8-2.2 7.9 0l24.2 24.2c2.2 2.1 2.2 5.7 0 7.9-1.1 1.1-2.5 1.6-4 1.6z"/></svg>